<svg width="1024" height="1024" viewBox="0 0 1024 1024" xmlns="http://www.w3.org/2000/svg">
  <defs>
    <linearGradient id="bg" x1="0" y1="0" x2="1" y2="1">
      <stop offset="0" stop-color="#6699cc"/>
      <stop offset="1" stop-color="#cc99cc"/>
    </linearGradient>
    <linearGradient id="flame" x1="0" y1="0" x2="0" y2="1">
      <stop offset="0" stop-color="#ffcc66"/>
      <stop offset="1" stop-color="#f99157"/>
    </linearGradient>
  </defs>

  <rect x="0" y="0" width="1024" height="1024" rx="180" fill="url(#bg)"/>

  <!-- flame -->
  <path d="M462 724 C 472 812 504 856 512 922 C 520 856 552 812 562 724 Z" fill="url(#flame)"/>

  <!-- fins -->
  <path d="M408 576 C 336 624 296 706 302 772 C 350 748 392 708 418 658 Z" fill="#10151f"/>
  <path d="M616 576 C 688 624 728 706 722 772 C 674 748 632 708 606 658 Z" fill="#10151f"/>

  <!-- body -->
  <path d="M512 108
           C 570 204 616 340 616 470
           L616 672
           Q616 732 558 734
           L466 734
           Q408 732 408 672
           L408 470
           C408 340 454 204 512 108 Z"
        fill="#ffffff"/>

  <!-- staging band -->
  <path d="M446 300 Q512 262 578 300" fill="none" stroke="#b9c2d0" stroke-width="15" stroke-linecap="round"/>

  <!-- terminal porthole -->
  <circle cx="512" cy="492" r="88" fill="#10151f"/>
  <g stroke="#5cc8ff" stroke-width="22" fill="none" stroke-linecap="round" stroke-linejoin="round">
    <polyline points="486,460 522,492 486,524"/>
    <line x1="538" y1="524" x2="562" y2="524"/>
  </g>
</svg>
